<!-- Generator: Adobe Illustrator 19.0.1, SVG Export Plug-In  -->
<svg version="1.1"
	 xmlns="http://www.w3.org/2000/svg" xmlns:xlink="http://www.w3.org/1999/xlink" xmlns:a="http://ns.adobe.com/AdobeSVGViewerExtensions/3.0/"
	 x="0px" y="0px" width="308.737px" height="41.394px" viewBox="0 0 308.737 41.394"
	 style="enable-background:new 0 0 308.737 41.394;" xml:space="preserve">
<style type="text/css">
	.st0{fill:#7A5C51;}
	.st1{fill:#0E955E;}
	.st2{fill:none;stroke:#0E955E;stroke-miterlimit:10;}
	.st3{font-family:'MyriadPro-Semibold';}
	.st4{font-size:37.2488px;}
	.st5{fill:#B97A57;}
</style>
<defs>
</defs>
<g>
	<g>
		<path class="st0" d="M2.645,6.977h4.582v21.268h10.317v3.836H2.645V6.977z"/>
		<path class="st0" d="M31.772,32.082l-0.298-2.011h-0.111c-1.118,1.416-3.017,2.421-5.364,2.421c-3.65,0-5.699-2.645-5.699-5.401
			c0-4.581,4.06-6.891,10.764-6.853v-0.298c0-1.192-0.484-3.166-3.688-3.166c-1.788,0-3.65,0.559-4.879,1.341l-0.894-2.98
			c1.341-0.819,3.688-1.602,6.555-1.602c5.811,0,7.487,3.688,7.487,7.636v6.555c0,1.639,0.074,3.241,0.261,4.358H31.772z
			 M31.176,23.217c-3.24-0.075-6.332,0.633-6.332,3.39c0,1.788,1.155,2.607,2.607,2.607c1.825,0,3.166-1.192,3.576-2.495
			c0.112-0.335,0.149-0.708,0.149-1.006V23.217z"/>
		<path class="st0" d="M41.234,19.343c0-2.086-0.038-3.836-0.149-5.401h4.023l0.223,2.719h0.112
			c0.782-1.416,2.756-3.129,5.773-3.129c3.166,0,6.444,2.048,6.444,7.785v10.764h-4.582V21.839c0-2.607-0.968-4.582-3.464-4.582
			c-1.825,0-3.091,1.304-3.576,2.682c-0.149,0.41-0.187,0.969-0.187,1.49v10.652h-4.618V19.343z"/>
		<path class="st0" d="M80.009,5.636v21.342c0,1.863,0.074,3.874,0.149,5.103h-4.097l-0.186-2.868H75.8
			c-1.08,2.012-3.278,3.278-5.922,3.278c-4.32,0-7.747-3.688-7.747-9.274c-0.037-6.071,3.762-9.684,8.12-9.684
			c2.496,0,4.283,1.043,5.103,2.384h0.074V5.636H80.009z M75.427,21.503c0-0.373-0.037-0.819-0.112-1.192
			c-0.41-1.788-1.862-3.24-3.948-3.24c-2.943,0-4.582,2.607-4.582,5.997c0,3.315,1.639,5.736,4.544,5.736
			c1.862,0,3.501-1.266,3.948-3.24c0.112-0.41,0.149-0.857,0.149-1.341V21.503z"/>
		<path class="st0" d="M85.857,7.312c1.639-0.298,3.911-0.521,7.002-0.521c3.352,0,5.811,0.708,7.412,2.048
			c1.49,1.229,2.458,3.204,2.458,5.55c0,2.384-0.745,4.358-2.16,5.699c-1.825,1.825-4.693,2.682-7.934,2.682
			c-0.856,0-1.639-0.038-2.235-0.149v9.46h-4.544V7.312z M90.401,19.008c0.559,0.149,1.304,0.187,2.235,0.187
			c3.427,0,5.513-1.676,5.513-4.619c0-2.793-1.937-4.284-5.103-4.284c-1.266,0-2.16,0.112-2.645,0.224V19.008z"/>
		<path class="st0" d="M123.552,22.844c0,6.667-4.693,9.647-9.312,9.647c-5.14,0-9.088-3.539-9.088-9.349
			c0-5.959,3.911-9.609,9.386-9.609C119.939,13.533,123.552,17.332,123.552,22.844z M109.883,23.031
			c0,3.501,1.713,6.146,4.507,6.146c2.607,0,4.432-2.57,4.432-6.22c0-2.831-1.266-6.071-4.395-6.071
			C111.186,16.885,109.883,20.014,109.883,23.031z"/>
		<path class="st0" d="M133.312,8.765v5.177h4.358v3.427h-4.358v8.008c0,2.198,0.596,3.353,2.347,3.353
			c0.782,0,1.378-0.112,1.788-0.224l0.075,3.501c-0.67,0.261-1.862,0.447-3.315,0.447c-1.676,0-3.091-0.559-3.948-1.49
			c-0.968-1.043-1.416-2.682-1.416-5.066v-8.529h-2.607v-3.427h2.607V9.845L133.312,8.765z"/>
		<path class="st0" d="M144.896,24.297c0.112,3.278,2.682,4.693,5.587,4.693c2.123,0,3.65-0.298,5.028-0.82l0.67,3.166
			c-1.564,0.633-3.725,1.118-6.332,1.118c-5.885,0-9.349-3.613-9.349-9.163c0-5.028,3.054-9.759,8.865-9.759
			c5.885,0,7.822,4.842,7.822,8.828c0,0.856-0.075,1.527-0.149,1.937H144.896z M152.867,21.094c0.037-1.676-0.708-4.432-3.762-4.432
			c-2.831,0-4.023,2.57-4.209,4.432H152.867z"/>
		<path class="st0" d="M161.621,19.343c0-2.086-0.038-3.836-0.149-5.401h4.023l0.223,2.719h0.112
			c0.782-1.416,2.756-3.129,5.773-3.129c3.166,0,6.444,2.048,6.444,7.785v10.764h-4.582V21.839c0-2.607-0.968-4.582-3.464-4.582
			c-1.825,0-3.091,1.304-3.576,2.682c-0.149,0.41-0.187,0.969-0.187,1.49v10.652h-4.618V19.343z"/>
		<path class="st0" d="M188.738,8.765v5.177h4.358v3.427h-4.358v8.008c0,2.198,0.596,3.353,2.347,3.353
			c0.782,0,1.378-0.112,1.788-0.224l0.075,3.501c-0.67,0.261-1.862,0.447-3.315,0.447c-1.676,0-3.091-0.559-3.948-1.49
			c-0.968-1.043-1.416-2.682-1.416-5.066v-8.529h-2.607v-3.427h2.607V9.845L188.738,8.765z"/>
		<path class="st0" d="M202.185,8.877c0,1.378-1.005,2.458-2.607,2.458c-1.527,0-2.533-1.08-2.533-2.458
			c0-1.416,1.042-2.496,2.57-2.496C201.179,6.381,202.147,7.461,202.185,8.877z M197.306,32.082V13.942h4.618v18.139H197.306z"/>
		<path class="st0" d="M217.792,32.082l-0.298-2.011h-0.111c-1.118,1.416-3.017,2.421-5.364,2.421c-3.65,0-5.699-2.645-5.699-5.401
			c0-4.581,4.06-6.891,10.764-6.853v-0.298c0-1.192-0.484-3.166-3.688-3.166c-1.788,0-3.65,0.559-4.879,1.341l-0.894-2.98
			c1.341-0.819,3.688-1.602,6.555-1.602c5.811,0,7.487,3.688,7.487,7.636v6.555c0,1.639,0.074,3.241,0.261,4.358H217.792z
			 M217.195,23.217c-3.24-0.075-6.332,0.633-6.332,3.39c0,1.788,1.155,2.607,2.607,2.607c1.825,0,3.166-1.192,3.576-2.495
			c0.112-0.335,0.149-0.708,0.149-1.006V23.217z"/>
		<path class="st0" d="M227.253,5.636h4.618v26.445h-4.618V5.636z"/>
	</g>
	<g>
		<g>
			<path class="st1" d="M256.164,31.78l2.229-1.24h3.29l1.513,0.329l0.517,0.291C263.713,31.16,256.975,31.989,256.164,31.78z"/>
			<g>
				<circle class="st2" cx="258.934" cy="19.251" r="12.83"/>
				<polygon class="st1" points="252.993,19.531 253.731,19.531 254.838,19.052 255.798,19.291 256.093,20.742 256.684,22.041 
					257.275,22.631 257.275,23.591 256.832,24.108 256.905,24.994 257.939,27.272 258.456,28.39 259.211,28.685 260.08,28.685 
					260.67,27.873 261.63,27.272 261.63,26.175 262.073,25.363 263.18,24.625 263.18,22.558 263.18,21.746 264.435,20.343 
					264.878,19.752 264.878,18.719 265.321,18.054 263.919,18.054 263.55,17.568 262.442,15.175 261.409,14.437 261.75,13.773 
					260.154,13.773 259.157,13.256 257.939,13.256 256.758,12.591 254.838,12.222 252.56,12.949 251.516,14.806 250.606,16.751 
					250.606,18.336 251.147,19.052 252.181,19.678 				"/>
				<polygon class="st1" points="246.348,16.751 247.471,18.994 247.471,19.75 248.721,19.75 248.721,22.842 248.721,23.895 
					248.721,25.07 249.116,26.79 247.997,26.79 246.104,20.605 				"/>
				<polygon class="st1" points="254.419,11.658 253.807,11.175 254.419,10.563 255.432,10.342 255.827,10.342 255.827,8.697 
					256.879,9.026 257.801,9.026 258.064,8.434 258.393,8.039 260.761,8.039 261.222,7.118 263.975,7.45 267.137,9.388 
					269.732,12.325 271.617,17.306 271.75,19.816 268.656,14.421 268.525,16.421 268.722,17.316 267.406,15.474 266.288,14.223 
					265.811,14.092 264.38,13.697 264.38,14.355 265.301,14.618 265.367,15.342 264.38,15.737 263.394,16.421 262.515,13.467 
					261.551,13.039 261.288,11.658 258.934,11.658 257.669,10.671 256.725,11.411 255.69,10.94 				"/>
			</g>
		</g>
		<g>
			<path class="st1" d="M239.94,28.645c0-1.713,1.192-2.942,2.831-2.942c1.676,0,2.831,1.192,2.831,2.942
				c0,1.676-1.117,2.942-2.831,2.942C241.095,31.587,239.94,30.321,239.94,28.645z"/>
			<path class="st1" d="M275.4,18.886c0-2.458-0.038-4.209-0.149-5.848h3.986l0.149,3.464h0.149c0.894-2.57,3.017-3.874,4.954-3.874
				c0.447,0,0.708,0.037,1.08,0.112v4.32c-0.372-0.074-0.782-0.149-1.341-0.149c-2.197,0-3.688,1.416-4.097,3.464
				c-0.074,0.41-0.149,0.894-0.149,1.416v9.386H275.4V18.886z"/>
			<path class="st1" d="M305.682,13.038c-0.075,1.229-0.149,2.719-0.149,5.214v10.28c0,3.799-0.782,6.518-2.682,8.231
				c-1.899,1.676-4.507,2.198-7.002,2.198c-2.309,0-4.768-0.484-6.332-1.453l1.005-3.464c1.155,0.67,3.092,1.378,5.289,1.378
				c2.98,0,5.215-1.564,5.215-5.475v-1.564h-0.075c-1.043,1.602-2.905,2.682-5.289,2.682c-4.507,0-7.71-3.725-7.71-8.865
				c0-5.959,3.874-9.572,8.231-9.572c2.756,0,4.395,1.341,5.252,2.831h0.074l0.187-2.421H305.682z M300.951,20.301
				c0-0.41-0.037-0.857-0.149-1.229c-0.484-1.676-1.788-2.943-3.725-2.943c-2.57,0-4.47,2.235-4.47,5.922
				c0,3.091,1.564,5.587,4.432,5.587c1.713,0,3.204-1.117,3.725-2.756c0.111-0.484,0.186-1.117,0.186-1.639V20.301z"/>
		</g>
	</g>
</g>
</svg>